<svg width="50" height="50" viewBox="0 0 50 50" fill="none" xmlns="http://www.w3.org/2000/svg">
<path d="M2.78125 0H47.25C48.7813 0 50 1.21875 50 2.75V47.25C50 48.75 48.7813 50 47.25 50H34.5V30.625H41L41.9688 23.0938H34.5V18.2812C34.5 16.0938 35.125 14.5938 38.25 14.5938H42.25V7.84375C41.5625 7.75 39.1875 7.5625 36.4375 7.5625C30.6562 7.5625 26.7188 11.0625 26.7188 17.5312V23.0938H20.1875V30.625H26.7188V50H2.78125C2.049 50 1.34627 49.7113 0.825576 49.1965C0.304879 48.6816 0.00822753 47.9822 0 47.25V2.75C0 1.21875 1.25 0 2.78125 0Z" fill="#FF0000"/>
</svg>
