<svg width="50" height="50" viewBox="0 0 50 50" fill="none" xmlns="http://www.w3.org/2000/svg">
<path d="M25 0C18.2038 0 17.3569 0.0328166 14.6971 0.145331C12.0265 0.276597 10.22 0.690711 8.62608 1.30954C6.95784 1.93934 5.44703 2.92539 4.19896 4.19896C2.92184 5.44411 1.93524 6.95576 1.30954 8.62608C0.690711 10.22 0.276597 12.0265 0.145331 14.6971C0.0250031 17.3584 0 18.2038 0 25C0 31.7962 0.0328166 32.6431 0.145331 35.3028C0.276597 37.9657 0.690711 39.78 1.30954 41.3739C1.93934 43.0422 2.92539 44.553 4.19896 45.801C5.44411 47.0782 6.95576 48.0648 8.62608 48.6905C10.22 49.3015 12.0343 49.7234 14.6971 49.8547C17.3584 49.975 18.2038 50 25 50C31.7962 50 32.6431 49.9672 35.3029 49.8547C37.9657 49.7234 39.78 49.2999 41.3739 48.6905C43.0422 48.0607 44.553 47.0746 45.801 45.801C47.0798 44.5572 48.0667 43.0452 48.6905 41.3739C49.3015 39.78 49.7234 37.9657 49.8547 35.3028C49.975 32.6416 50 31.7962 50 25C50 18.2038 49.9672 17.3569 49.8547 14.6971C49.7234 12.0343 49.2999 10.2107 48.6905 8.62608C48.0607 6.95784 47.0746 5.44703 45.801 4.19896C44.5572 2.92019 43.0452 1.93333 41.3739 1.30954C39.78 0.690711 37.9657 0.276597 35.3029 0.145331C32.6416 0.0250031 31.7962 0 25 0ZM25 4.50056C31.6743 4.50056 32.4712 4.53338 35.1091 4.64589C37.5422 4.75997 38.8674 5.16627 39.7472 5.51006C40.8348 5.91156 41.8193 6.55058 42.6288 7.38061C43.4574 8.18669 44.094 9.16888 44.4915 10.2544C44.8353 11.1342 45.2416 12.4594 45.3557 14.8925C45.4682 17.5303 45.501 18.3289 45.501 25.0016C45.501 31.6743 45.4682 32.4728 45.3463 35.1106C45.215 37.5438 44.8087 38.8689 44.4665 39.7487C43.993 40.9223 43.4648 41.7427 42.5928 42.6303C41.7806 43.4552 40.7968 44.0911 39.7112 44.4931C38.8424 44.8369 37.4984 45.2432 35.0559 45.3572C32.404 45.4697 31.6227 45.5026 24.9312 45.5026C18.2398 45.5026 17.46 45.4697 14.805 45.3479C12.3719 45.2166 11.0295 44.8103 10.1497 44.4681C8.96206 43.9946 8.14789 43.4664 7.27591 42.5944C6.39611 41.7146 5.83667 40.877 5.40536 39.7128C5.05532 38.8439 4.65527 37.5 4.52557 35.0575C4.43649 32.4369 4.3943 31.6243 4.3943 24.9641C4.3943 18.307 4.43649 17.4928 4.52557 14.8394C4.65527 12.3969 5.05532 11.0561 5.40536 10.1841C5.83667 8.99487 6.39768 8.18227 7.27591 7.30247C8.14633 6.43205 8.96206 5.86948 10.1497 5.4288C11.0295 5.08657 12.339 4.68027 14.7815 4.55838C17.4334 4.46306 18.2148 4.42868 24.8969 4.42868L25 4.50056ZM25 12.1687C23.3144 12.1681 21.6452 12.4996 20.0878 13.1444C18.5303 13.7892 17.1152 14.7345 15.9233 15.9264C14.7314 17.1184 13.7861 18.5335 13.1413 20.0909C12.4965 21.6483 12.165 23.3175 12.1656 25.0031C12.165 26.6887 12.4965 28.358 13.1413 29.9154C13.7861 31.4728 14.7314 32.8879 15.9233 34.0798C17.1152 35.2717 18.5303 36.2171 20.0878 36.8618C21.6452 37.5066 23.3144 37.8382 25 37.8375C26.6856 37.8382 28.3548 37.5066 29.9122 36.8618C31.4697 36.2171 32.8848 35.2717 34.0767 34.0798C35.2686 32.8879 36.2139 31.4728 36.8587 29.9154C37.5035 28.358 37.835 26.6887 37.8344 25.0031C37.835 23.3175 37.5035 21.6483 36.8587 20.0909C36.2139 18.5335 35.2686 17.1184 34.0767 15.9264C32.8848 14.7345 31.4697 13.7892 29.9122 13.1444C28.3548 12.4996 26.6856 12.1681 25 12.1687ZM25 33.337C20.3932 33.337 16.6661 29.6099 16.6661 25.0031C16.6661 20.3963 20.3932 16.6693 25 16.6693C29.6068 16.6693 33.3339 20.3963 33.3339 25.0031C33.3339 29.6099 29.6068 33.337 25 33.337ZM41.352 11.6561C41.3512 12.4526 41.0342 13.2161 40.4708 13.779C39.9073 14.3419 39.1434 14.6581 38.347 14.6581C37.9532 14.6581 37.5632 14.5805 37.1994 14.4298C36.8356 14.2791 36.505 14.0582 36.2265 13.7797C35.948 13.5013 35.7271 13.1707 35.5764 12.8069C35.4257 12.443 35.3482 12.0531 35.3482 11.6593C35.3482 11.2655 35.4257 10.8755 35.5764 10.5117C35.7271 10.1478 35.948 9.81725 36.2265 9.53879C36.505 9.26032 36.8356 9.03943 37.1994 8.88873C37.5632 8.73802 37.9532 8.66046 38.347 8.66046C39.9987 8.66046 41.352 10.0044 41.352 11.6561Z" fill="#FF0000"/>
</svg>
