<svg width="50" height="50" viewBox="0 0 50 50" fill="none" xmlns="http://www.w3.org/2000/svg">
<path d="M46.3115 0.000189345H3.68852C2.72144 -0.00965279 1.78995 0.364552 1.09844 1.04069C0.40693 1.71683 0.0118899 2.63968 0 3.60675V46.4018C0.0140401 47.3675 0.410025 48.2882 1.1013 48.9626C1.79257 49.637 2.72284 50.0101 3.68852 50.0002H46.3115C47.2786 50.0079 48.2095 49.6324 48.9006 48.9558C49.5918 48.2793 49.987 47.3566 50 46.3895V3.59445C49.9827 2.63023 49.5856 1.71178 48.8949 1.03874C48.2042 0.3657 47.2758 -0.00752445 46.3115 0.000189345ZM14.8238 42.6231H7.40164V18.742H14.8238V42.6231ZM11.1352 15.4879C10.284 15.4887 9.45157 15.237 8.74336 14.7647C8.03515 14.2923 7.48295 13.6205 7.15661 12.8343C6.83028 12.048 6.74448 11.1826 6.91006 10.3476C7.07564 9.51258 7.48516 8.74542 8.08682 8.14319C8.68848 7.54096 9.45524 7.1307 10.2901 6.96433C11.125 6.79795 11.9904 6.88293 12.777 7.20851C13.5636 7.5341 14.2359 8.08566 14.7089 8.79342C15.1819 9.50118 15.4344 10.3333 15.4344 11.1846C15.4334 11.7504 15.3207 12.3105 15.1029 12.8327C14.8852 13.3549 14.5666 13.8291 14.1653 14.228C13.7641 14.6269 13.2881 14.9428 12.7647 15.1576C12.2412 15.3724 11.6806 15.4819 11.1148 15.4797L11.1352 15.4879ZM42.6229 42.6231H35.2008V31.0043C35.2008 28.2379 35.1516 24.6764 31.3443 24.6764C27.5369 24.6764 26.8893 27.6928 26.8893 30.824V42.6231H19.4795V18.742H26.5943V22.0207H26.6926C27.6844 20.1436 30.1025 18.1641 33.7131 18.1641C41.2295 18.1477 42.6229 23.0945 42.6229 29.5084V42.6231Z" fill="#FF0000"/>
</svg>
