<svg width="379" height="57" viewBox="0 0 379 57" fill="none" xmlns="http://www.w3.org/2000/svg">
<path d="M10.575 45V13.32H18.63V45H10.575ZM0.81 20.025V13.095H28.395V20.025H0.81ZM32.0586 45V13.095H40.1136V45H32.0586ZM38.4486 45V38.205H55.7286V45H38.4486ZM38.4486 32.04V25.425H54.1086V32.04H38.4486ZM38.4486 19.89V13.095H55.4586V19.89H38.4486ZM65.7165 45V38.07H73.3665C75.1665 38.07 76.7265 37.725 78.0465 37.035C79.3965 36.345 80.4315 35.325 81.1515 33.975C81.8715 32.595 82.2315 30.93 82.2315 28.98C82.2315 27.06 81.8565 25.44 81.1065 24.12C80.3865 22.77 79.3665 21.75 78.0465 21.06C76.7265 20.37 75.1665 20.025 73.3665 20.025H65.3565V13.095H73.4115C75.8715 13.095 78.1365 13.485 80.2065 14.265C82.2765 15.015 84.0765 16.095 85.6065 17.505C87.1365 18.915 88.3215 20.595 89.1615 22.545C90.0315 24.495 90.4665 26.655 90.4665 29.025C90.4665 31.425 90.0315 33.6 89.1615 35.55C88.3215 37.5 87.1365 39.18 85.6065 40.59C84.0765 42 82.2765 43.095 80.2065 43.875C78.1665 44.625 75.9315 45 73.5015 45H65.7165ZM60.2715 45V13.095H68.3265V45H60.2715Z" fill="white"/>
<path d="M108.705 36L103.98 27.855L102.18 26.775L93.495 13.995H102.54L107.175 21.915L108.885 22.905L117.705 36H108.705ZM93.045 36L102.09 22.995L106.545 27.81L101.415 36H93.045ZM108.615 26.775L104.16 21.96L108.885 13.995H117.255L108.615 26.775Z" fill="white"/>
<path d="M259.835 45V13.095H267.89V45H259.835ZM266.225 45V38.205H283.505V45H266.225ZM266.225 32.04V25.425H281.885V32.04H266.225ZM266.225 19.89V13.095H283.235V19.89H266.225ZM294.123 45L285.168 22.995H293.538L299.253 41.535H296.058L301.728 22.995H310.008L301.053 44.955L294.123 45ZM322.837 45.495C320.377 45.495 318.202 45.015 316.312 44.055C314.422 43.065 312.937 41.7 311.857 39.96C310.777 38.22 310.237 36.225 310.237 33.975C310.237 31.755 310.762 29.79 311.812 28.08C312.862 26.34 314.287 24.975 316.087 23.985C317.917 22.965 319.972 22.455 322.252 22.455C324.472 22.455 326.437 22.935 328.147 23.895C329.887 24.825 331.237 26.13 332.197 27.81C333.187 29.46 333.682 31.35 333.682 33.48C333.682 33.93 333.652 34.395 333.592 34.875C333.562 35.325 333.472 35.85 333.322 36.45L313.927 36.54V31.5L330.217 31.365L326.707 33.57C326.677 32.34 326.497 31.335 326.167 30.555C325.837 29.745 325.357 29.13 324.727 28.71C324.097 28.29 323.302 28.08 322.342 28.08C321.352 28.08 320.497 28.32 319.777 28.8C319.057 29.28 318.502 29.955 318.112 30.825C317.722 31.695 317.527 32.745 317.527 33.975C317.527 35.235 317.737 36.315 318.157 37.215C318.577 38.085 319.177 38.745 319.957 39.195C320.737 39.645 321.697 39.87 322.837 39.87C323.917 39.87 324.862 39.69 325.672 39.33C326.512 38.97 327.262 38.415 327.922 37.665L332.017 41.76C330.937 42.99 329.617 43.92 328.057 44.55C326.527 45.18 324.787 45.495 322.837 45.495ZM350.904 45V32.58C350.904 31.56 350.604 30.765 350.004 30.195C349.404 29.595 348.639 29.295 347.709 29.295C347.079 29.295 346.509 29.43 345.999 29.7C345.519 29.97 345.144 30.345 344.874 30.825C344.604 31.305 344.469 31.89 344.469 32.58L341.409 31.14C341.409 29.37 341.799 27.855 342.579 26.595C343.359 25.305 344.424 24.315 345.774 23.625C347.154 22.905 348.714 22.545 350.454 22.545C352.044 22.545 353.454 22.92 354.684 23.67C355.944 24.39 356.934 25.365 357.654 26.595C358.374 27.825 358.734 29.22 358.734 30.78V45H350.904ZM336.639 45V22.995H344.469V45H336.639ZM365.625 45V13.905H373.455V45H365.625ZM360.765 29.52V22.995H378.315V29.52H360.765Z" fill="#FF0000"/>
<path d="M129.06 45V13.23H134.1L146.61 32.715H144.045L156.51 13.23H161.595V45H154.53V25.155L155.79 25.47L147.645 38.16H142.965L134.865 25.47L136.08 25.155V45H129.06ZM167.688 45V13.23H174.753V45H167.688ZM195.947 45.495C193.577 45.495 191.372 45.09 189.332 44.28C187.322 43.44 185.552 42.27 184.022 40.77C182.522 39.27 181.352 37.53 180.512 35.55C179.672 33.54 179.252 31.38 179.252 29.07C179.252 26.76 179.672 24.615 180.512 22.635C181.352 20.625 182.522 18.885 184.022 17.415C185.522 15.945 187.277 14.805 189.287 13.995C191.327 13.155 193.532 12.735 195.902 12.735C198.422 12.735 200.657 13.14 202.607 13.95C204.587 14.76 206.312 15.87 207.782 17.28L203.057 22.05C202.217 21.15 201.197 20.445 199.997 19.935C198.827 19.425 197.462 19.17 195.902 19.17C194.522 19.17 193.247 19.41 192.077 19.89C190.937 20.34 189.947 21 189.107 21.87C188.297 22.74 187.652 23.79 187.172 25.02C186.722 26.25 186.497 27.6 186.497 29.07C186.497 30.57 186.722 31.935 187.172 33.165C187.652 34.395 188.297 35.445 189.107 36.315C189.947 37.185 190.937 37.86 192.077 38.34C193.247 38.82 194.522 39.06 195.902 39.06C197.522 39.06 198.932 38.805 200.132 38.295C201.332 37.785 202.367 37.08 203.237 36.18L208.007 40.95C206.477 42.36 204.722 43.47 202.742 44.28C200.792 45.09 198.527 45.495 195.947 45.495ZM208.721 45L221.321 13.23H227.711L240.176 45H232.706L223.166 18.63H225.731L216.056 45H208.721ZM215.876 39.24V33.48H233.201V39.24H215.876Z" fill="white"/>
</svg>
