<svg width="243" height="57" viewBox="0 0 243 57" fill="none" xmlns="http://www.w3.org/2000/svg">
<path d="M10.575 45V13.32H18.63V45H10.575ZM0.81 20.025V13.095H28.395V20.025H0.81ZM32.0586 45V13.095H40.1136V45H32.0586ZM38.4486 45V38.205H55.7286V45H38.4486ZM38.4486 32.04V25.425H54.1086V32.04H38.4486ZM38.4486 19.89V13.095H55.4586V19.89H38.4486ZM65.7165 45V38.07H73.3665C75.1665 38.07 76.7265 37.725 78.0465 37.035C79.3965 36.345 80.4315 35.325 81.1515 33.975C81.8715 32.595 82.2315 30.93 82.2315 28.98C82.2315 27.06 81.8565 25.44 81.1065 24.12C80.3865 22.77 79.3665 21.75 78.0465 21.06C76.7265 20.37 75.1665 20.025 73.3665 20.025H65.3565V13.095H73.4115C75.8715 13.095 78.1365 13.485 80.2065 14.265C82.2765 15.015 84.0765 16.095 85.6065 17.505C87.1365 18.915 88.3215 20.595 89.1615 22.545C90.0315 24.495 90.4665 26.655 90.4665 29.025C90.4665 31.425 90.0315 33.6 89.1615 35.55C88.3215 37.5 87.1365 39.18 85.6065 40.59C84.0765 42 82.2765 43.095 80.2065 43.875C78.1665 44.625 75.9315 45 73.5015 45H65.7165ZM60.2715 45V13.095H68.3265V45H60.2715Z" fill="#FF0000"/>
<path d="M108.705 36L103.98 27.855L102.18 26.775L93.495 13.995H102.54L107.175 21.915L108.885 22.905L117.705 36H108.705ZM93.045 36L102.09 22.995L106.545 27.81L101.415 36H93.045ZM108.615 26.775L104.16 21.96L108.885 13.995H117.255L108.615 26.775Z" fill="#FF0000"/>
<path d="M128.835 45V13.095H134.64L146.88 31.59H144.135L156.33 13.095H162.135V45H154.17V26.415L155.43 26.775L148.095 37.8H142.875L135.585 26.775L136.845 26.415V45H128.835ZM167.814 45V13.095H175.869V45H167.814ZM197.005 45.495C194.575 45.495 192.325 45.09 190.255 44.28C188.185 43.44 186.37 42.285 184.81 40.815C183.28 39.315 182.08 37.56 181.21 35.55C180.37 33.54 179.95 31.365 179.95 29.025C179.95 26.655 180.37 24.48 181.21 22.5C182.08 20.49 183.28 18.75 184.81 17.28C186.37 15.81 188.17 14.655 190.21 13.815C192.28 12.975 194.515 12.555 196.915 12.555C199.435 12.555 201.7 12.96 203.71 13.77C205.72 14.55 207.49 15.645 209.02 17.055L203.62 22.455C202.87 21.615 201.94 20.955 200.83 20.475C199.72 19.995 198.415 19.755 196.915 19.755C195.625 19.755 194.44 19.965 193.36 20.385C192.31 20.805 191.395 21.435 190.615 22.275C189.835 23.085 189.22 24.06 188.77 25.2C188.35 26.34 188.14 27.615 188.14 29.025C188.14 30.435 188.35 31.71 188.77 32.85C189.22 33.99 189.835 34.98 190.615 35.82C191.395 36.63 192.31 37.26 193.36 37.71C194.44 38.13 195.625 38.34 196.915 38.34C198.415 38.34 199.735 38.115 200.875 37.665C202.015 37.185 202.99 36.51 203.8 35.64L209.2 41.04C207.64 42.45 205.87 43.545 203.89 44.325C201.94 45.105 199.645 45.495 197.005 45.495ZM209.552 45L221.927 13.095H229.712L241.952 45H233.537L224.312 18.18H227.237L217.787 45H209.552ZM217.067 39.42V33.03H234.662V39.42H217.067Z" fill="white"/>
</svg>
