<svg width="162" height="45" viewBox="0 0 162 45" fill="none" xmlns="http://www.w3.org/2000/svg">
<path d="M7.05 37V15.88H12.42V37H7.05ZM0.54 20.35V15.73H18.93V20.35H0.54ZM21.3724 37V15.73H26.7424V37H21.3724ZM25.6324 37V32.47H37.1524V37H25.6324ZM25.6324 28.36V23.95H36.0724V28.36H25.6324ZM25.6324 20.26V15.73H36.9724V20.26H25.6324ZM43.811 37V32.38H48.911C50.111 32.38 51.151 32.15 52.031 31.69C52.931 31.23 53.621 30.55 54.101 29.65C54.581 28.73 54.821 27.62 54.821 26.32C54.821 25.04 54.571 23.96 54.071 23.08C53.591 22.18 52.911 21.5 52.031 21.04C51.151 20.58 50.111 20.35 48.911 20.35H43.571V15.73H48.941C50.581 15.73 52.091 15.99 53.471 16.51C54.851 17.01 56.051 17.73 57.071 18.67C58.091 19.61 58.881 20.73 59.441 22.03C60.021 23.33 60.311 24.77 60.311 26.35C60.311 27.95 60.021 29.4 59.441 30.7C58.881 32 58.091 33.12 57.071 34.06C56.051 35 54.851 35.73 53.471 36.25C52.111 36.75 50.621 37 49.001 37H43.811ZM40.181 37V15.73H45.551V37H40.181Z" fill="#FF0000"/>
<path d="M72.47 31L69.32 25.57L68.12 24.85L62.33 16.33H68.36L71.45 21.61L72.59 22.27L78.47 31H72.47ZM62.03 31L68.06 22.33L71.03 25.54L67.61 31H62.03ZM72.41 24.85L69.44 21.64L72.59 16.33H78.17L72.41 24.85Z" fill="#FF0000"/>
<path d="M85.89 37V15.73H89.76L97.92 28.06H96.09L104.22 15.73H108.09V37H102.78V24.61L103.62 24.85L98.73 32.2H95.25L90.39 24.85L91.23 24.61V37H85.89ZM111.876 37V15.73H117.246V37H111.876ZM131.337 37.33C129.717 37.33 128.217 37.06 126.837 36.52C125.457 35.96 124.247 35.19 123.207 34.21C122.187 33.21 121.387 32.04 120.807 30.7C120.247 29.36 119.967 27.91 119.967 26.35C119.967 24.77 120.247 23.32 120.807 22C121.387 20.66 122.187 19.5 123.207 18.52C124.247 17.54 125.447 16.77 126.807 16.21C128.187 15.65 129.677 15.37 131.277 15.37C132.957 15.37 134.467 15.64 135.807 16.18C137.147 16.7 138.327 17.43 139.347 18.37L135.747 21.97C135.247 21.41 134.627 20.97 133.887 20.65C133.147 20.33 132.277 20.17 131.277 20.17C130.417 20.17 129.627 20.31 128.907 20.59C128.207 20.87 127.597 21.29 127.077 21.85C126.557 22.39 126.147 23.04 125.847 23.8C125.567 24.56 125.427 25.41 125.427 26.35C125.427 27.29 125.567 28.14 125.847 28.9C126.147 29.66 126.557 30.32 127.077 30.88C127.597 31.42 128.207 31.84 128.907 32.14C129.627 32.42 130.417 32.56 131.277 32.56C132.277 32.56 133.157 32.41 133.917 32.11C134.677 31.79 135.327 31.34 135.867 30.76L139.467 34.36C138.427 35.3 137.247 36.03 135.927 36.55C134.627 37.07 133.097 37.33 131.337 37.33ZM139.701 37L147.951 15.73H153.141L161.301 37H155.691L149.541 19.12H151.491L145.191 37H139.701ZM144.711 33.28V29.02H156.441V33.28H144.711Z" fill="white"/>
</svg>
