<svg width="50" height="50" viewBox="0 0 50 50" fill="none" xmlns="http://www.w3.org/2000/svg">
<path d="M25 0C11.2161 0 0 11.2137 0 25C0 38.7863 11.2161 50 25 50C38.7839 50 50 38.7863 50 25C50 11.2137 38.7839 0 25 0ZM25 48.3348C12.1344 48.3348 1.66823 37.8664 1.66823 25C1.66823 12.1336 12.1344 1.66521 25 1.66521C37.8656 1.66521 48.3318 12.1336 48.3318 25C48.3318 37.8664 37.8656 48.3348 25 48.3348Z" fill="#FF0000"/>
<path d="M38.7106 17.2758C38.8836 16.9556 39.0261 16.62 39.1363 16.2732C39.1873 16.1124 39.1883 15.9398 39.1392 15.7784C39.0901 15.6169 38.9932 15.4742 38.8613 15.3689C38.7294 15.2637 38.5687 15.201 38.4004 15.189C38.2321 15.177 38.0641 15.2164 37.9186 15.3018C37.1197 15.7765 36.2549 16.1301 35.3523 16.3512C34.2567 15.3623 32.8338 14.8141 31.358 14.8123C30.5561 14.8129 29.7627 14.9754 29.0252 15.2901C28.2877 15.6048 27.6214 16.0651 27.0661 16.6436C26.5108 17.2221 26.0781 17.9067 25.7938 18.6565C25.5095 19.4062 25.3795 20.2057 25.4116 21.0069C21.9052 20.5655 18.7033 18.7911 16.4702 16.0518C16.3847 15.948 16.2753 15.8664 16.1515 15.814C16.0276 15.7615 15.893 15.7397 15.7589 15.7504C15.6248 15.7611 15.4953 15.804 15.3814 15.8755C15.2674 15.947 15.1724 16.0449 15.1045 16.161C14.5931 17.0387 14.3152 18.0328 14.2972 19.0484C14.2791 20.0641 14.5217 21.0674 15.0016 21.9627C14.8839 21.9825 14.7708 22.0238 14.6679 22.0843C14.5418 22.1647 14.4381 22.2755 14.3661 22.4066C14.2942 22.5377 14.2564 22.6848 14.2563 22.8343C14.2563 24.6039 15.0436 26.2286 16.3127 27.3325L16.2582 27.3871C16.1624 27.4955 16.0964 27.627 16.0669 27.7686C16.0374 27.9102 16.0453 28.0571 16.0898 28.1948C16.3544 29.0204 16.7963 29.7782 17.3845 30.4152C17.9726 31.0521 18.6929 31.5528 19.4948 31.8822C17.8478 32.6858 16.0046 32.9991 14.1846 32.785C13.9975 32.7659 13.8094 32.8095 13.6497 32.9088C13.49 33.0081 13.3678 33.1576 13.3021 33.3338C13.2391 33.5114 13.2379 33.705 13.2988 33.8833C13.3596 34.0616 13.4789 34.2141 13.6373 34.3161C16.1116 35.9042 18.9901 36.748 21.9301 36.7469C31.5653 36.7469 37.3246 28.9198 37.3246 21.353L37.323 21.0973C38.2568 20.3683 39.0679 19.4945 39.7256 18.5091C39.8252 18.3601 39.8742 18.183 39.8653 18.0041C39.8564 17.8251 39.7901 17.6537 39.6762 17.5154C39.5624 17.377 39.407 17.279 39.2331 17.2358C39.0591 17.1927 38.876 17.2067 38.7106 17.2758ZM35.99 20.0121C35.8769 20.0935 35.7859 20.2019 35.7255 20.3275C35.665 20.453 35.637 20.5917 35.6439 20.7309C35.6532 20.9367 35.6579 21.1457 35.6579 21.3515C35.6579 28.0996 30.5238 35.0801 21.9317 35.0801C20.3993 35.0808 18.8777 34.8236 17.4306 34.3192C19.1637 33.9871 20.7917 33.2439 22.178 32.152C22.313 32.0456 22.4118 31.9001 22.4609 31.7354C22.51 31.5707 22.5071 31.3949 22.4525 31.2319C22.3979 31.0689 22.2943 30.9268 22.1559 30.825C22.0174 30.7232 21.8509 30.6666 21.6791 30.6629C21.0069 30.6501 20.3471 30.4795 19.7529 30.1647C19.1587 29.85 18.6468 29.4001 18.2585 28.8512C18.6529 28.8247 19.0396 28.7592 19.4153 28.6578C19.5972 28.6092 19.7572 28.5003 19.8692 28.349C19.9812 28.1977 20.0387 28.0129 20.0321 27.8247C20.0256 27.6366 19.9555 27.4562 19.8333 27.313C19.7111 27.1698 19.544 27.0723 19.3592 27.0363C18.6 26.8818 17.897 26.5239 17.3255 26.0007C16.754 25.4775 16.3355 24.8087 16.1147 24.066C16.5295 24.1705 16.9551 24.2313 17.3807 24.2453C17.7471 24.2438 18.087 24.0193 18.2008 23.6669C18.3146 23.3145 18.1805 22.9263 17.8703 22.7205C17.1367 22.2317 16.5718 21.5283 16.2529 20.7065C15.9339 19.8846 15.8764 18.9844 16.0882 18.1286C18.7964 20.9076 22.4533 22.5624 26.3283 22.7625C26.6027 22.7641 26.8428 22.6659 27.0097 22.4647C27.1765 22.2636 27.2404 21.997 27.1812 21.7413C26.9679 20.8229 27.0633 19.8599 27.4525 19.0012C27.8417 18.1425 28.5031 17.436 29.3343 16.9911C30.1654 16.5462 31.1201 16.3877 32.0504 16.54C32.9808 16.6924 33.835 17.1472 34.4808 17.834C34.5776 17.9372 34.6991 18.0142 34.8338 18.0576C34.9686 18.1009 35.1121 18.1093 35.251 18.0819C35.5083 18.0304 35.7624 17.9712 36.0134 17.9026C35.9002 17.9873 35.7826 18.0659 35.661 18.138C35.4994 18.237 35.3763 18.3882 35.312 18.5666C35.2477 18.745 35.2462 18.9399 35.3075 19.1193C35.3689 19.2987 35.4896 19.4519 35.6496 19.5535C35.8097 19.6551 35.9996 19.6992 36.188 19.6785L36.4718 19.6426C36.3155 19.7713 36.1548 19.8946 35.99 20.0121Z" fill="#FF0000"/>
</svg>
