<svg width="50" height="37" viewBox="0 0 50 37" fill="none" xmlns="http://www.w3.org/2000/svg">
<path d="M50 17.9743C50 17.8516 50 17.7121 49.9944 17.5502C49.9888 17.0982 49.9777 16.5904 49.9665 16.0491C49.9219 14.4922 49.8438 12.9408 49.721 11.4788C49.5536 9.46428 49.308 7.7846 48.9732 6.52344C48.6199 5.20731 47.9273 4.00697 46.9647 3.04239C46.0021 2.07782 44.8031 1.38279 43.4877 1.02679C41.9085 0.602678 38.817 0.340402 34.4643 0.178571C32.394 0.100446 30.1786 0.0502229 27.9632 0.0223211C27.1875 0.0111604 26.4676 0.00558036 25.8203 0H24.1797C23.5324 0.00558036 22.8125 0.0111604 22.0368 0.0223211C19.8214 0.0502229 17.606 0.100446 15.5357 0.178571C11.183 0.345982 8.08594 0.608259 6.51228 1.02679C5.19643 1.38192 3.99704 2.07665 3.03429 3.04136C2.07153 4.00607 1.37924 5.20687 1.02679 6.52344C0.686384 7.7846 0.446429 9.46428 0.279018 11.4788C0.15625 12.9408 0.0781249 14.4922 0.0334821 16.0491C0.016741 16.5904 0.0111606 17.0982 0.00558027 17.5502C0.00558027 17.7121 0 17.8516 0 17.9743V18.2868C0 18.4096 -8.51495e-08 18.5491 0.00558027 18.7109C0.0111606 19.1629 0.0223213 19.6708 0.0334821 20.2121C0.0781249 21.769 0.15625 23.3203 0.279018 24.7824C0.446429 26.7969 0.691964 28.4766 1.02679 29.7377C1.74107 32.4107 3.83929 34.5201 6.51228 35.2344C8.08594 35.6585 11.183 35.9208 15.5357 36.0826C17.606 36.1607 19.8214 36.2109 22.0368 36.2388C22.8125 36.25 23.5324 36.2556 24.1797 36.2612H25.8203C26.4676 36.2556 27.1875 36.25 27.9632 36.2388C30.1786 36.2109 32.394 36.1607 34.4643 36.0826C38.817 35.9152 41.9141 35.6529 43.4877 35.2344C46.1607 34.5201 48.2589 32.4163 48.9732 29.7377C49.3136 28.4766 49.5536 26.7969 49.721 24.7824C49.8438 23.3203 49.9219 21.769 49.9665 20.2121C49.9833 19.6708 49.9888 19.1629 49.9944 18.7109C49.9944 18.5491 50 18.4096 50 18.2868V17.9743ZM45.9821 18.2645C45.9821 18.3817 45.9821 18.51 45.9766 18.6607C45.971 19.096 45.9598 19.5759 45.9487 20.0949C45.9096 21.5792 45.8315 23.0636 45.7143 24.442C45.5636 26.2388 45.3516 27.7121 45.0893 28.6998C44.7433 29.9888 43.7277 31.01 42.4442 31.3504C41.2723 31.6629 38.3203 31.9141 34.308 32.0647C32.2768 32.1429 30.0893 32.1931 27.9074 32.221C27.1429 32.2321 26.4342 32.2377 25.798 32.2377H24.202L22.0926 32.221C19.9107 32.1931 17.7288 32.1429 15.692 32.0647C11.6797 31.9085 8.7221 31.6629 7.5558 31.3504C6.27232 31.0045 5.2567 29.9888 4.91071 28.6998C4.64844 27.7121 4.43638 26.2388 4.28571 24.442C4.16853 23.0636 4.09598 21.5792 4.05134 20.0949C4.0346 19.5759 4.02902 19.0904 4.02344 18.6607C4.02344 18.51 4.01786 18.3761 4.01786 18.2645V17.9967C4.01786 17.8795 4.01786 17.7511 4.02344 17.6004C4.02902 17.1652 4.04018 16.6853 4.05134 16.1663C4.0904 14.6819 4.16853 13.1975 4.28571 11.8192C4.43638 10.0223 4.64844 8.54911 4.91071 7.56138C5.2567 6.27232 6.27232 5.25112 7.5558 4.91071C8.72768 4.59821 11.6797 4.3471 15.692 4.19643C17.7232 4.1183 19.9107 4.06808 22.0926 4.04018C22.8571 4.02902 23.5658 4.02344 24.202 4.02344H25.798L27.9074 4.04018C30.0893 4.06808 32.2712 4.1183 34.308 4.19643C38.3203 4.35268 41.2779 4.59821 42.4442 4.91071C43.7277 5.2567 44.7433 6.27232 45.0893 7.56138C45.3516 8.54911 45.5636 10.0223 45.7143 11.8192C45.8315 13.1975 45.904 14.6819 45.9487 16.1663C45.9654 16.6853 45.971 17.1708 45.9766 17.6004C45.9766 17.7511 45.9821 17.885 45.9821 17.9967V18.2645ZM20.0335 25.6083L32.9799 18.0748L20.0335 10.6529V25.6083Z" fill="#FF0000"/>
</svg>
